<?xml version="1.0" encoding="utf-8"?>
<!-- Generator: Adobe Illustrator 24.2.1, SVG Export Plug-In . SVG Version: 6.00 Build 0)  -->
<svg version="1.1" id="Layer_1" xmlns="http://www.w3.org/2000/svg" xmlns:xlink="http://www.w3.org/1999/xlink" x="0px" y="0px"
	 viewBox="0 0 937.22 833" style="enable-background:new 0 0 937.22 833;" xml:space="preserve">
<style type="text/css">
	.st0{fill:#F4F6F8;}
	.st1{fill:#FEFEFE;}
	.st2{fill:#E68232;}
	.st3{fill:#3F363D;}
	.st4{fill:#6A6661;}
	.st5{fill:#CCD0D2;}
	.st6{fill:#535F68;}
	.st7{fill:#5A6770;}
	.st8{fill:#606D76;}
	.st9{fill:#65737C;}
	.st10{fill:#6E7C85;}
	.st11{fill:#6A7881;}
	.st12{fill:#D8DEE1;}
	.st13{fill:#EBEDEE;}
	.st14{fill:#DCE1E4;}
	.st15{fill:#9FAAAF;}
</style>
<g>
	<g>
		<path class="st0" d="M933.69,832.83c-310.31,0-620.63,0-930.94,0c-1.07-1.07-2.15-2.14-3.22-3.21c0-272.15,0.09-544.3-0.31-816.45
			C-0.8,2.16,1.38-0.01,12.41,0c303.87,0.38,607.74,0.38,911.61,0c11.03-0.01,13.21,2.16,13.19,13.17
			c-0.39,272.15-0.31,544.3-0.31,816.45C935.83,830.68,934.76,831.76,933.69,832.83z M468.24,26.02
			c-121.83,0-243.66,0.52-365.48-0.33c-35.04-0.25-68.9,28.57-68.59,67.88c1.67,212.06,1.67,424.15,0,636.21
			c-0.31,39.48,33.57,68.08,68.47,67.99c243.12-0.59,486.24-0.24,729.36-0.38c43.64-0.02,66.25-23.15,66.25-66.68
			c0.01-211.54,0.01-423.08,0-634.62c0-48.44-21.79-70.05-70.96-70.07C707.6,25.99,587.92,26.02,468.24,26.02z"/>
		<path class="st1" d="M-0.48,829.61c1.07,1.07,2.15,2.14,3.22,3.21C-0.03,833.45-1.1,832.38-0.48,829.61z"/>
		<path class="st1" d="M933.69,832.83c1.07-1.07,2.15-2.14,3.22-3.21C937.53,832.38,936.46,833.45,933.69,832.83z"/>
		<path class="st2" d="M468.24,26.02c119.68,0,239.36-0.04,359.04,0.02c49.17,0.02,70.96,21.63,70.96,70.07
			c0,211.54,0.01,423.08,0,634.62c0,43.53-22.62,66.65-66.25,66.68c-243.12,0.13-486.24-0.21-729.36,0.38
			c-34.9,0.08-68.78-28.51-68.47-67.99c1.68-212.06,1.67-424.15,0-636.21c-0.31-39.31,33.55-68.13,68.59-67.88
			C224.58,26.55,346.41,26.02,468.24,26.02z M165.27,664.93c7.59,15.98,20.47,22.41,37.92,22.39c175.34-0.15,350.67-0.09,526.01-0.1
			c3.75,0,7.73,0.74,11.22-0.23c12.21-3.39,25.33-6.04,27.53-22.03c2.33-7.29-0.96-13.69-3.73-19.89
			c-6.43-14.37-14.39-28.49-19.73-42.85c-12.94-34.79-31.52-66.98-44.08-101.8c3.08-7.07,3.03-14.54,3.02-22.06
			c-0.06-64.23,0.05-128.46-0.09-192.68c-0.04-16.56-0.07-33.18-1.39-49.67c-1.86-23.25-4.95-25.55-28.97-25.56
			c-136.78-0.03-273.55-0.02-410.33-0.01c-25.04,0-29.65,4.67-29.67,30.33c-0.05,79.75,0.01,159.5-0.06,239.25
			c-0.01,7.02,0.27,13.9,3.02,20.43c-1.57,8.71-9.61,13.96-12.26,21.8c-10.37,30.64-26.76,58.69-37.95,88.87
			C179.06,629.12,168.98,645.84,165.27,664.93z"/>
		<path class="st3" d="M235.97,500.49c-2.77-6.56-3.05-13.44-3.04-20.46c0.07-79.75,0.02-159.5,0.06-239.25
			c0.02-25.66,4.62-30.33,29.67-30.33c136.78-0.02,273.55-0.02,410.33,0.01c24.01,0,27.11,2.3,28.97,25.56
			c1.32,16.49,1.35,33.11,1.39,49.67c0.14,64.23,0.03,128.46,0.09,192.68c0.01,7.52,0.06,14.99-3.01,22.05
			C545.61,502.18,390.79,502.02,235.97,500.49z M264,238.9c-9.78,0.28-6.87,7.83-6.91,12.93c-0.21,25.45,0.01,50.91,0.07,76.36
			c0.02,46.5,0.31,93.01-0.12,139.5c-0.1,10.74,2.62,15.09,14.28,15.06c130.16-0.33,260.32-0.33,390.49,0.02
			c11.6,0.03,14.67-4.14,14.36-14.98c-0.67-24.03-0.3-48.1-0.35-72.15c-0.07-4.3-0.14-8.59-0.22-12.89
			c-0.54-14.98,3.21-30.19-2.53-44.88c0.89-7.5,1.79-15,2.68-22.49c0.01-2.18,0.02-4.37,0.03-6.55c-0.1-4.28-0.21-8.57-0.3-12.85
			c0-16.05-0.01-32.11-0.01-48.16c1.35-11.97-7.6-9.37-13.97-9.4c-41.84-0.17-83.69-0.16-125.53-0.09
			C445.31,238.49,354.66,238.71,264,238.9z"/>
		<path class="st4" d="M767.92,664.96c-2.17,16-15.3,18.65-27.51,22.04c-3.49,0.97-7.47,0.23-11.22,0.23
			c-175.34,0-350.67-0.06-526.01,0.1c-17.45,0.02-30.33-6.41-37.93-22.39c4.93-0.46,9.86-0.92,14.8-1.38
			c25.13,2.87,50.34,1.22,75.5,1.1c39.12-0.18,78.26,1.82,117.36-1.12c36.27,3.62,72.64,1.21,108.95,1.39
			c26.13,0.13,52.36,2.13,78.44-1.39c13.83,2.73,27.81,1.3,41.7,1.16c51.46-0.51,102.93,1.8,154.37-1.15
			C760.22,664.02,764.07,664.49,767.92,664.96z"/>
		<path class="st5" d="M180.06,663.55c-4.94,0.46-9.87,0.93-14.8,1.39c3.72-19.1,13.8-35.82,20.48-53.81
			c11.19-30.18,27.58-58.23,37.95-88.87c2.65-7.84,10.69-13.08,12.27-21.78c154.83,1.54,309.65,1.7,464.46-0.06
			c12.55,34.83,31.13,67.02,44.07,101.81c5.34,14.36,13.3,28.47,19.73,42.85c2.77,6.2,6.06,12.6,3.72,19.88
			c-3.86-0.47-7.72-0.94-11.57-1.41c1.63-11.98-3.17-21.48-8.76-32.09c-9.67-18.36-15.16-38.86-23.41-58.03
			c-7.74-18-19.12-34.77-24.43-53.35c-3.47-12.13-8.66-12.4-17.68-11.28c-13.72,0-27.44,0-41.16,0c-5.6,0-11.21,0-16.81,0
			c-11.59,0-23.18,0-34.77,0c-5.61,0-11.21,0-16.82,0c-12.65,0-25.3,0-37.94,0c-79.7,0-159.39,0-239.09,0
			c-15.85,0.01-31.71,0.01-47.56,0.02c-2.58,0.33-7.39,0.53-7.42,1.02c-1.08,18.53-16.37,30.13-22.53,46.34
			c-6.26,16.47-10.74,33.6-19.88,49.33C187.93,623.03,177.16,641.48,180.06,663.55z"/>
		<path class="st6" d="M675.82,395.64c0.05,24.05-0.32,48.11,0.35,72.15c0.3,10.84-2.76,15.01-14.36,14.98
			c-130.16-0.35-260.32-0.35-390.49-0.02c-11.67,0.03-14.38-4.32-14.28-15.06c0.43-46.5,0.15-93,0.13-139.5
			c2.17-0.01,4.35-0.02,6.52-0.03c0.02,3.21,0.05,6.41,0.07,9.62c0,15-0.01,30-0.01,44.99c-0.61,10.71,3.83,20.76,3.41,31.64
			c-0.65,17.04,5.82,22.99,23.02,23c118.83,0.08,237.66,0.09,356.49-0.01c17.83-0.01,22.25-5.21,23.12-22.71
			C670.1,408.18,664.94,399.11,675.82,395.64z"/>
		<path class="st7" d="M675.82,395.64c-10.88,3.46-5.72,12.54-6.04,19.05c-0.86,17.5-5.29,22.7-23.12,22.71
			c-118.83,0.1-237.66,0.09-356.49,0.01c-17.2-0.01-23.68-5.97-23.02-23c0.42-10.89-4.02-20.94-3.41-31.64
			c13.89,6.82,28.74,6.59,43.75,6.56c97.94-0.18,195.89,0.01,293.83-0.16c24.9-0.04,50.16,3.02,74.28-6.42
			C675.67,387.05,675.75,391.35,675.82,395.64z"/>
		<path class="st8" d="M675.6,382.75c-24.12,9.44-49.37,6.38-74.28,6.42c-97.94,0.17-195.89-0.02-293.83,0.16
			c-15.01,0.03-29.86,0.26-43.75-6.56c0-15,0.01-30,0.01-44.99c22.32,9.68,45.91,6.31,69.08,6.37
			c87.17,0.24,174.35,0.35,261.52-0.06c26.33-0.12,53.14,4.02,78.72-6.22C678.81,352.56,675.06,367.78,675.6,382.75z"/>
		<path class="st9" d="M673.07,337.87c-25.58,10.23-52.39,6.1-78.72,6.22c-87.17,0.4-174.35,0.29-261.52,0.06
			c-23.17-0.06-46.76,3.31-69.08-6.37c-0.02-3.21-0.05-6.41-0.07-9.62c0.03-9.65,0.07-19.31,0.1-28.96
			c14.66,4.01,29.67,3.27,44.63,3.26c101.4-0.01,202.8,0.06,304.2-0.06c21.14-0.02,42.63,2.81,62.85-6.43
			c0.1,4.28,0.21,8.57,0.31,12.85c-2.29,0.5-5.32,0.66-4.57,3.93c0.26,1.16,2.96,1.76,4.54,2.62
			C674.86,322.88,673.96,330.38,673.07,337.87z"/>
		<path class="st10" d="M264.01,238.91c90.65-0.2,181.31-0.42,271.96-0.57c41.84-0.07,83.69-0.09,125.53,0.09
			c6.37,0.03,15.32-2.57,13.97,9.4c-1.7,1.11-4.89,2.22-4.9,3.35c-0.2,21.32-14.26,22.54-30.64,22.5
			c-102.33-0.26-204.66-0.01-306.98-0.23c-23.21-0.05-46.84,3.3-69.21-6.35C263.83,257.69,263.92,248.3,264.01,238.91z"/>
		<path class="st11" d="M263.75,267.08c22.37,9.65,46,6.3,69.21,6.35c102.33,0.22,204.66-0.04,306.98,0.23
			c16.38,0.04,30.44-1.17,30.64-22.5c0.01-1.13,3.19-2.23,4.9-3.35c0,16.05,0,32.11,0,48.16c-20.22,9.23-41.72,6.41-62.86,6.43
			c-101.4,0.11-202.8,0.05-304.2,0.06c-14.96,0-29.97,0.75-44.64-3.26C263.77,288.49,263.76,277.79,263.75,267.08z"/>
		<path class="st7" d="M263.75,267.08c0.01,10.71,0.02,21.41,0.04,32.12c-0.03,9.65-0.07,19.31-0.1,28.96
			c-2.17,0.01-4.35,0.02-6.52,0.03c-0.07-25.45-0.28-50.91-0.07-76.36c0.04-5.1-2.87-12.65,6.91-12.92
			C263.92,248.3,263.83,257.69,263.75,267.08z"/>
		<path class="st7" d="M675.75,315.38c-1.58-0.86-4.28-1.46-4.54-2.62c-0.75-3.27,2.29-3.43,4.57-3.93
			C675.77,311.01,675.76,313.2,675.75,315.38z"/>
		<path class="st12" d="M295.5,508.8c79.7,0,159.39,0,239.08-0.01c-2.54,7.33-5.3,14.09,6.97,15.53
			c23.53,2.77,29.91-0.05,30.97-15.53c5.61,0,11.21,0,16.82,0c-4.61,10.46-2.1,16.1,10.27,15.47c5.79-0.3,11.62,0.07,17.42-0.12
			c12.42-0.41,14.22-5.86,7.07-15.34c5.6,0,11.21,0,16.8-0.01c-1.88,10.45,3.69,14.71,13.15,15.29c5.83,0.36,11.7-0.13,17.54,0.18
			c12.31,0.65,15.21-4.77,10.48-15.47c9.02-1.12,14.21-0.85,17.68,11.28c5.31,18.58,16.68,35.36,24.43,53.35
			c8.25,19.17,13.75,39.67,23.41,58.03c5.59,10.62,10.4,20.11,8.76,32.09c-51.43,2.94-102.91,0.63-154.37,1.15
			c-13.88,0.14-27.87,1.58-41.7-1.15c-2.8-15.91,6.58-33.08-4.73-48.06c-4.65-6.16-6.75-13.19-8.49-20.46
			c11.24-0.05,22.48-0.04,33.71-0.17c4.36-0.05,9.4-0.39,9.9-5.82c0.53-5.7-4.26-9.21-8.95-9.53c-11.17-0.78-22.48-0.83-33.65-0.02
			c-6.77,0.49-7.42,6.64-7.4,12.27c-3.21,0.01-6.42,0.02-9.63,0.02c0.18-7.25-2.04-13.38-10.44-12.64
			c-13.96,1.22-27.26-3.83-41.07-3.27c1.05-2.2,2.11-4.4,3.16-6.6c12.88-0.01,25.76-0.02,38.64-0.03
			c6.45-1.07,12.89-2.14,19.34-3.21c11.11,5.83,23.08,2.41,34.65,3.09c3.97,0.23,9.48,1.04,9.51-5.36c0.02-5.31-4.29-7.11-8.86-7.2
			c-11.74-0.22-23.49-0.11-35.23-0.12c-5.42,0.01-10.85,0.01-16.27,0.02c-17.12-0.01-34.24-0.01-51.37-0.02
			c-4.35,0-8.7,0-13.05,0.01c-17.12,0-34.24,0-51.37,0c-4.35,0-8.7-0.01-13.05-0.01c-12.81,0.02-25.63-0.09-38.43,0.13
			c-4.55,0.08-8.89,1.88-8.87,7.19c0.03,6.4,5.55,5.61,9.51,5.35c12.63-0.82,25.66,2.97,37.85-3.09c4.32,1.06,8.65,2.11,12.97,3.17
			c16.08,0.01,32.16,0.03,48.23,0.04c5.13,1.14,13.54-3.09,14.71,4.14c1.3,8.09-7.21,4.35-11.55,5.56
			c-15.23-0.01-30.47,0.44-45.67-0.21c-10.06-0.43-13.23,3.98-12.23,13.07c-2.36,3.66-6.11,3.11-9.66,3.17
			c5.64-10.76,2.23-16.06-9.8-16.07c-9.55-0.01-19.1-0.12-28.64,0.13c-5.84,0.15-11.24,3.18-11.52,8.86
			c-0.38,7.49,6.55,6.88,11.75,6.97c10.61,0.19,21.22,0.12,31.83,0.16c-13.75,21.04-13.97,44.68-13.22,68.51
			c-39.09,2.93-78.24,0.93-117.36,1.12c-25.16,0.12-50.37,1.76-75.5-1.1c-2.9-22.07,7.88-40.52,18.06-58.05
			c9.14-15.73,13.62-32.86,19.88-49.33c6.16-16.22,21.45-27.82,22.53-46.34c0.03-0.48,4.84-0.68,7.41-1.02
			c-0.4,6.42-1.2,13.92,7.42,14.81c10.36,1.07,20.87,1.68,31.33-1.08C294.43,520.5,296.96,516.19,295.5,508.8z M249.18,578.94
			c-5.3,0-10.6-0.08-15.89,0.02c-5.76,0.11-11.11,1.54-10.7,8.61c0.35,6.03,5.35,7.24,10.45,7.28c9.54,0.08,19.07,0.02,28.61,0.03
			c5.89,0,10.85-1.76,11.26-8.45c0.49-7.99-5.66-7.46-11.01-7.52C257.65,578.86,253.41,578.9,249.18,578.94z M687.49,578.9
			c-4.27,0-8.55-0.05-12.82,0.01c-5.36,0.08-11.61-0.53-11.09,7.56c0.44,6.8,5.54,8.4,11.43,8.41c5.88,0.01,11.78,0.36,17.62-0.04
			c7.36-0.51,18.8,2.99,17.88-9.43c-0.83-11.22-11.82-4.84-18.23-6.47C690.77,578.57,689.09,578.89,687.49,578.9z M308.81,578.9
			c0,0.02,0,0.03,0,0.05c-4.8,0-9.59-0.06-14.39,0.02c-5.1,0.08-10.21,1.13-10.6,7.2c-0.4,6.33,5.44,7.78,9.9,8.22
			c8.45,0.83,17.02,0.47,25.54,0.49c6.58,0.02,12.1-1.95,11.5-9.77c-0.62-8.07-7.45-5.76-12.37-6.17
			C315.22,578.68,312.01,578.9,308.81,578.9z M626.99,578.28c-6.34,3.66-20.87-5.09-20.46,9.27c0.35,11.99,13.54,6.7,21.21,7.13
			c8.02,0.44,20.97,2.79,21.04-8.03C648.88,574.22,635.45,580.84,626.99,578.28z M435.79,533.92c0,0.02,0,0.03,0,0.05
			c-5.34,0-10.69-0.12-16.03,0.04c-4.35,0.13-9.35,0.55-9.54,6.13c-0.19,5.68,4.76,6.42,9.14,6.5c9.61,0.19,19.23,0.12,28.85,0.06
			c5-0.03,10.52-0.68,10.89-6.79c0.47-7.62-6.14-5.59-10.49-5.91C444.36,533.67,440.06,533.92,435.79,533.92z M499.29,533.37
			c-8.2,3.45-23.62-5.27-23.92,6.09c-0.28,10.6,15.38,7.41,24.2,6.92c7.96-0.44,22.57,5.67,22.44-6.2
			C521.88,528.41,507.07,536.68,499.29,533.37z M676.3,555.4c-6.56,4.4-20.72-4.47-21.01,6.2c-0.36,12.78,14.13,7.44,21.94,7.17
			c7.95-0.28,22.78,6.12,22.86-5.32C700.19,549.68,684.72,559.8,676.3,555.4z M556.55,532.77c-6.92,5.57-22.78-5.84-22.89,8.09
			c-0.08,10.66,15.05,5.48,23.15,5.42c7.3-0.06,20.85,6.04,21.09-5.72C578.17,527.8,564.21,537.07,556.55,532.77z M622.54,569.62
			c6.14-3.73,20.03,6.13,19.83-7.34c-0.15-10.62-13.05-3.91-20.01-5.87c-0.5-0.14-1.11-0.15-1.59,0
			c-7.97,2.47-23.03-5.49-23.07,5.13C597.65,573.07,613.06,567.76,622.54,569.62z M670.71,547.22c7.75-2.66,21.97,4.16,22.09-6.18
			c0.15-12.75-14.29-6.52-22.11-6.67c-7.54-0.14-21.53-5.45-21.85,4.62C648.42,552.25,663.16,544.09,670.71,547.22z M612.74,533.43
			c-7.32,2.83-20.98-4.42-21.05,6.68c-0.06,9.21,13.7,7.15,21.5,6.27c7.8-0.88,22.14,6.1,22.14-5.69
			C635.34,528.73,620.58,536.4,612.74,533.43z M257.19,556.42c-4.26,0-8.51-0.07-12.77,0.02c-4.34,0.09-8.97,0.11-9.19,6.13
			c-0.22,6.03,4.22,6.57,8.68,6.62c7.98,0.08,15.96,0.07,23.94,0c4.99-0.04,10.45-0.69,10.87-6.76c0.54-7.62-6.03-5.61-10.37-5.97
			C264.66,556.16,260.91,556.4,257.19,556.42z M316.62,555.81c-7.77,3.27-22.49-4.97-22.11,8.28c0.29,10.19,14.17,4.4,21.8,4.79
			c7.1,0.36,19.83,4.19,19.71-6.55C335.9,550.96,323.09,559.15,316.62,555.81z M378.39,547.55c6.89-3.59,21.17,3.99,21.28-6.57
			c0.13-12.67-14.23-6.43-22.03-6.59c-6.63-0.14-19.34-5.58-19.23,6.05C358.52,551.94,371.24,544.21,378.39,547.55z M321.19,547.19
			c7.62-2.42,21.47,4.03,21.14-7.56c-0.32-11.37-13.84-4.96-21.22-5.27c-7.35-0.31-20.96-5.02-20.3,7.43
			C301.34,551.58,314.34,544.4,321.19,547.19z M264.83,533.38c-7.49,2.85-21.41-4.38-21.3,7.07c0.1,11.03,13.83,5.68,21.46,5.94
			c7.11,0.24,19.89,4.16,19.53-6.8C284.16,528.68,271.41,536.51,264.83,533.38z M515.72,517.65c-13.45-2.74-26.93-4.77-40.35,0.2
			C488.73,522.59,502.22,521.19,515.72,517.65z M365.74,518.47c11.42,1.85,22.96,4.77,38.72-1.27
			C388.43,513.63,377.06,513.51,365.74,518.47z M307.79,518.09c11.47,3.03,22.95,4.92,38.82-0.85
			C330.48,513.62,319.12,513.52,307.79,518.09z M423.88,517.58c10.4,4.12,20.74,5.27,30.82-0.67
			C444.41,514.63,434.16,513.52,423.88,517.58z"/>
		<path class="st5" d="M372.91,663.54c-0.75-23.83-0.52-47.47,13.22-68.51c2.13-0.02,4.26-0.04,6.39-0.06
			c3.55-0.06,7.3,0.49,9.66-3.17c19.34,0.06,38.67,0.12,58.01,0.17c3.52,4.37,8.43,2.66,12.89,2.95
			c19.08-5.58,38.67-1.78,57.98-3.15c3.21-0.01,6.42-0.02,9.63-0.02c2.13,1.09,4.26,2.19,6.38,3.28c1.74,7.27,3.84,14.3,8.49,20.46
			c11.32,14.98,1.94,32.15,4.73,48.06c-26.09,3.51-52.31,1.51-78.44,1.38C445.55,664.75,409.18,667.16,372.91,663.54z
			 M467.38,656.12c24.69,0,49.38-0.2,74.07,0.1c9.98,0.12,13.98-2.88,10.69-13.38c-2.37-7.58-4.38-15.59-4.54-23.45
			c-0.23-11.03-4.62-15.17-15.58-15.08c-41.33,0.33-82.66,0.31-123.98,0.02c-12.6-0.09-18.75,4.76-19.24,17.82
			c-0.25,6.71-1.86,14.21-5.36,19.79c-7.17,11.43-2.68,14.18,8.27,14.18C416.93,656.09,442.16,656.1,467.38,656.12z"/>
		<path class="st13" d="M295.5,508.8c1.46,7.39-1.07,11.7-8.82,13.75c-10.46,2.76-20.97,2.15-31.33,1.08
			c-8.62-0.89-7.82-8.4-7.42-14.81C263.8,508.81,279.65,508.8,295.5,508.8z"/>
		<path class="st13" d="M682.09,508.79c4.73,10.7,1.83,16.12-10.48,15.47c-5.83-0.31-11.71,0.17-17.54-0.18
			c-9.46-0.58-15.03-4.84-13.15-15.29C654.65,508.79,668.37,508.79,682.09,508.79z"/>
		<path class="st13" d="M624.12,508.79c7.15,9.48,5.35,14.93-7.07,15.34c-5.8,0.19-11.63-0.17-17.42,0.12
			c-12.38,0.63-14.88-5.01-10.27-15.47C600.94,508.8,612.53,508.8,624.12,508.79z"/>
		<path class="st13" d="M572.53,508.79c-1.06,15.47-7.44,18.3-30.97,15.53c-12.27-1.44-9.52-8.21-6.97-15.53
			C547.24,508.79,559.89,508.79,572.53,508.79z"/>
		<path class="st13" d="M392.52,594.97c-2.13,0.02-4.26,0.04-6.39,0.06c-10.61-0.04-21.22,0.03-31.83-0.16
			c-5.2-0.09-12.13,0.52-11.75-6.97c0.29-5.68,5.68-8.71,11.52-8.86c9.54-0.25,19.09-0.14,28.64-0.13
			C394.75,578.92,398.16,584.21,392.52,594.97z"/>
		<path class="st13" d="M249.18,578.92c4.24-0.02,8.48-0.06,12.71-0.01c5.34,0.06,11.5-0.46,11.01,7.52
			c-0.41,6.69-5.37,8.45-11.26,8.45c-9.54,0-19.07,0.05-28.61-0.03c-5.1-0.04-10.1-1.26-10.45-7.28c-0.41-7.07,4.94-8.5,10.7-8.61
			C238.58,578.86,243.88,578.94,249.18,578.92z"/>
		<path class="st13" d="M531.06,591.78c-19.31,1.36-38.9-2.44-57.98,3.15c-2.38-7.88,4.45-12.66,6.47-19.06
			c13.8-0.55,27.11,4.5,41.07,3.27C529.02,578.4,531.24,584.53,531.06,591.78z"/>
		<path class="st13" d="M547.08,595.03c-2.13-1.09-4.26-2.19-6.38-3.28c-0.02-5.62,0.64-11.78,7.4-12.27
			c11.17-0.81,22.47-0.75,33.65,0.02c4.69,0.33,9.48,3.83,8.95,9.53c-0.5,5.43-5.55,5.76-9.9,5.82
			C569.56,595,558.32,594.98,547.08,595.03z"/>
		<path class="st13" d="M687.49,578.9c1.6-0.01,3.29-0.33,4.79,0.05c6.41,1.63,17.4-4.75,18.23,6.47
			c0.92,12.42-10.52,8.92-17.88,9.43c-5.85,0.4-11.75,0.05-17.62,0.04c-5.89-0.01-10.99-1.61-11.43-8.41
			c-0.52-8.1,5.73-7.49,11.09-7.56C678.94,578.85,683.21,578.9,687.49,578.9z"/>
		<path class="st13" d="M460.19,591.98c-19.34-0.06-38.67-0.12-58.01-0.18c-1-9.09,2.17-13.5,12.23-13.07
			c15.2,0.65,30.44,0.2,45.67,0.21C460.12,583.29,460.16,587.63,460.19,591.98z"/>
		<path class="st13" d="M308.81,578.9c3.2,0,6.41-0.21,9.59,0.05c4.92,0.4,11.75-1.9,12.37,6.17c0.6,7.82-4.92,9.79-11.5,9.77
			c-8.52-0.03-17.09,0.33-25.54-0.49c-4.46-0.44-10.3-1.89-9.9-8.22c0.38-6.08,5.5-7.12,10.6-7.2c4.79-0.08,9.59-0.02,14.39-0.02
			C308.81,578.93,308.81,578.91,308.81,578.9z"/>
		<path class="st13" d="M626.99,578.28c8.46,2.57,21.89-4.06,21.8,8.36c-0.08,10.82-13.02,8.47-21.04,8.03
			c-7.67-0.42-20.87,4.87-21.21-7.13C606.11,573.19,620.64,581.93,626.99,578.28z"/>
		<path class="st13" d="M408.71,556.45c17.12,0,34.24,0,51.37-0.01c0.6,4.67-0.97,8.81-3.15,12.79
			c-16.08-0.01-32.16-0.03-48.23-0.04C408.7,564.95,408.71,560.7,408.71,556.45z"/>
		<path class="st13" d="M435.79,533.92c4.27,0,8.57-0.25,12.82,0.07c4.35,0.33,10.96-1.71,10.49,5.91
			c-0.37,6.12-5.89,6.76-10.89,6.79c-9.62,0.06-19.23,0.13-28.85-0.06c-4.37-0.08-9.33-0.83-9.14-6.5c0.19-5.58,5.19-6,9.54-6.13
			c5.34-0.16,10.68-0.04,16.03-0.04C435.79,533.95,435.79,533.93,435.79,533.92z"/>
		<path class="st13" d="M473.12,556.44c17.12,0.01,34.24,0.01,51.37,0.01c0.6,4.66-0.96,8.8-3.14,12.79
			c-12.88,0.01-25.76,0.02-38.64,0.03C477.03,566.84,471.85,564.05,473.12,556.44z"/>
		<path class="st13" d="M499.29,533.37c7.77,3.31,22.59-4.96,22.72,6.81c0.13,11.87-14.48,5.75-22.44,6.2
			c-8.82,0.49-24.48,3.67-24.2-6.92C475.67,528.1,491.09,536.82,499.29,533.37z"/>
		<path class="st13" d="M676.3,555.4c8.41,4.4,23.88-5.72,23.78,8.04c-0.08,11.44-14.92,5.04-22.86,5.32
			c-7.8,0.27-22.29,5.61-21.94-7.17C655.59,550.93,669.74,559.81,676.3,555.4z"/>
		<path class="st13" d="M556.55,532.77c7.66,4.3,21.62-4.96,21.36,7.79c-0.24,11.76-13.79,5.66-21.09,5.72
			c-8.1,0.07-23.23,5.25-23.15-5.42C533.77,526.93,549.63,538.34,556.55,532.77z"/>
		<path class="st13" d="M395.73,566.03c-12.19,6.06-25.22,2.27-37.85,3.09c-3.96,0.26-9.48,1.05-9.51-5.35
			c-0.03-5.32,4.32-7.11,8.87-7.19c12.81-0.22,25.62-0.11,38.44-0.13C395.69,559.64,395.71,562.83,395.73,566.03z"/>
		<path class="st13" d="M622.54,569.62c-9.48-1.87-24.88,3.45-24.84-8.09c0.04-10.62,15.1-2.65,23.07-5.13
			c0.49-0.15,1.1-0.14,1.59,0c6.96,1.96,19.86-4.75,20.01,5.87C642.56,575.75,628.67,565.9,622.54,569.62z"/>
		<path class="st13" d="M670.71,547.22c-7.55-3.13-22.28,5.03-21.87-8.23c0.32-10.08,14.31-4.77,21.85-4.62
			c7.83,0.15,22.26-6.09,22.11,6.67C692.68,551.38,678.46,544.57,670.71,547.22z"/>
		<path class="st13" d="M612.74,533.43c7.84,2.98,22.6-4.7,22.59,7.27c0,11.79-14.34,4.81-22.14,5.69
			c-7.8,0.88-21.56,2.93-21.5-6.27C591.76,529.01,605.43,536.25,612.74,533.43z"/>
		<path class="st13" d="M257.19,556.41c3.72-0.01,7.47-0.26,11.17,0.05c4.34,0.36,10.91-1.65,10.37,5.97
			c-0.43,6.07-5.89,6.72-10.87,6.76c-7.98,0.07-15.96,0.08-23.94,0c-4.46-0.05-8.91-0.58-8.68-6.62c0.22-6.02,4.86-6.05,9.19-6.13
			C248.68,556.36,252.93,556.42,257.19,556.41z"/>
		<path class="st13" d="M540.76,556.44c11.74,0.02,23.49-0.1,35.23,0.12c4.57,0.09,8.88,1.89,8.86,7.2c-0.03,6.4-5.54,5.6-9.51,5.36
			c-11.57-0.68-23.54,2.74-34.65-3.09C540.72,562.84,540.74,559.64,540.76,556.44z"/>
		<path class="st13" d="M316.62,555.81c6.47,3.34,19.28-4.85,19.4,6.51c0.12,10.74-12.61,6.91-19.71,6.55
			c-7.64-0.38-21.51,5.4-21.8-4.79C294.13,550.84,308.86,559.08,316.62,555.81z"/>
		<path class="st13" d="M378.39,547.55c-7.14-3.34-19.87,4.39-19.98-7.12c-0.11-11.63,12.6-6.19,19.23-6.05
			c7.79,0.17,22.16-6.07,22.03,6.59C399.56,551.54,385.28,543.97,378.39,547.55z"/>
		<path class="st13" d="M321.19,547.19c-6.85-2.79-19.86,4.39-20.38-5.41c-0.66-12.45,12.95-7.74,20.3-7.43
			c7.38,0.32,20.9-6.1,21.22,5.27C342.66,551.22,328.81,544.77,321.19,547.19z"/>
		<path class="st13" d="M264.83,533.38c6.59,3.13,19.34-4.7,19.69,6.21c0.35,10.96-12.42,7.04-19.53,6.8
			c-7.63-0.26-21.36,5.09-21.46-5.94C243.42,529,257.33,536.24,264.83,533.38z"/>
		<path class="st14" d="M473.12,556.44c-1.28,7.6,3.91,10.4,9.59,12.83c-1.05,2.2-2.11,4.4-3.16,6.6
			c-2.02,6.4-8.85,11.17-6.47,19.06c-4.46-0.29-9.37,1.42-12.89-2.95c-0.04-4.34-0.07-8.69-0.11-13.03
			c4.34-1.21,12.85,2.53,11.55-5.56c-1.16-7.24-9.57-3-14.71-4.14c2.18-3.99,3.75-8.13,3.15-12.79
			C464.43,556.45,468.78,556.45,473.12,556.44z"/>
		<path class="st13" d="M515.72,517.65c-13.49,3.54-26.99,4.94-40.35,0.2C488.79,512.88,502.27,514.91,515.72,517.65z"/>
		<path class="st13" d="M365.74,518.47c11.32-4.96,22.69-4.84,38.72-1.27C388.7,523.24,377.15,520.32,365.74,518.47z"/>
		<path class="st13" d="M307.79,518.09c11.33-4.57,22.69-4.47,38.82-0.85C330.73,523.01,319.25,521.12,307.79,518.09z"/>
		<path class="st13" d="M423.88,517.58c10.28-4.06,20.53-2.95,30.82-0.67C444.62,522.85,434.28,521.7,423.88,517.58z"/>
		<path class="st14" d="M540.76,556.44c-0.02,3.2-0.04,6.4-0.07,9.6c-6.45,1.07-12.89,2.14-19.34,3.21
			c2.17-3.99,3.74-8.12,3.14-12.79C529.92,556.45,535.34,556.45,540.76,556.44z"/>
		<path class="st14" d="M395.73,566.03c-0.02-3.2-0.04-6.39-0.06-9.59c4.35,0,8.7,0.01,13.05,0.01c0,4.25-0.01,8.5-0.01,12.75
			C404.37,568.15,400.05,567.09,395.73,566.03z"/>
		<path class="st15" d="M467.38,656.11c-25.23-0.01-50.45-0.02-75.68,0c-10.95,0.01-15.44-2.75-8.27-14.18
			c3.5-5.58,5.11-13.08,5.36-19.79c0.49-13.07,6.63-17.91,19.24-17.82c41.33,0.29,82.66,0.32,123.98-0.02
			c10.97-0.09,15.36,4.05,15.58,15.08c0.16,7.86,2.17,15.88,4.54,23.45c3.29,10.5-0.71,13.5-10.69,13.38
			C516.77,655.92,492.07,656.12,467.38,656.11z"/>
	</g>
</g>
</svg>
